<mxfile host="Electron" agent="Mozilla/5.0 (Windows NT 10.0; Win64; x64) AppleWebKit/537.36 (KHTML, like Gecko) draw.io/24.7.8 Chrome/128.0.6613.36 Electron/32.0.1 Safari/537.36" version="24.7.8">
  <diagram name="Page-1" id="R4XA7tSctUNUyfBh0-gc">
    <mxGraphModel dx="1502" dy="866" grid="1" gridSize="10" guides="1" tooltips="1" connect="1" arrows="1" fold="1" page="1" pageScale="1" pageWidth="1100" pageHeight="850" math="0" shadow="0">
      <root>
        <mxCell id="0" />
        <mxCell id="1" parent="0" />
        <mxCell id="vJI1p02DLTC_4uBa_MS3-52" value="" style="rounded=1;whiteSpace=wrap;html=1;fillColor=#dae8fc;dashed=1;strokeColor=#6c8ebf;opacity=50;" parent="1" vertex="1">
          <mxGeometry x="230" y="100" width="740" height="450" as="geometry" />
        </mxCell>
        <mxCell id="vJI1p02DLTC_4uBa_MS3-1" value="" style="triangle;whiteSpace=wrap;html=1;fillColor=#60a917;fontColor=#ffffff;strokeColor=#2D7600;" parent="1" vertex="1">
          <mxGeometry x="220" y="190" width="20" height="20" as="geometry" />
        </mxCell>
        <mxCell id="vJI1p02DLTC_4uBa_MS3-6" value="" style="triangle;whiteSpace=wrap;html=1;fillColor=#0050ef;fontColor=#ffffff;strokeColor=#001DBC;" parent="1" vertex="1">
          <mxGeometry x="960" y="190" width="20" height="20" as="geometry" />
        </mxCell>
        <mxCell id="vJI1p02DLTC_4uBa_MS3-7" value="" style="triangle;whiteSpace=wrap;html=1;fillColor=#0050ef;fontColor=#ffffff;strokeColor=#001DBC;" parent="1" vertex="1">
          <mxGeometry x="960" y="230" width="20" height="20" as="geometry" />
        </mxCell>
        <mxCell id="vJI1p02DLTC_4uBa_MS3-8" value="" style="triangle;whiteSpace=wrap;html=1;fillColor=#0050ef;fontColor=#ffffff;strokeColor=#001DBC;" parent="1" vertex="1">
          <mxGeometry x="960" y="270" width="20" height="20" as="geometry" />
        </mxCell>
        <mxCell id="vJI1p02DLTC_4uBa_MS3-9" value="" style="triangle;whiteSpace=wrap;html=1;fillColor=#0050ef;fontColor=#ffffff;strokeColor=#001DBC;" parent="1" vertex="1">
          <mxGeometry x="960" y="310" width="20" height="20" as="geometry" />
        </mxCell>
        <mxCell id="vJI1p02DLTC_4uBa_MS3-10" value="" style="triangle;whiteSpace=wrap;html=1;fillColor=#0050ef;fontColor=#ffffff;strokeColor=#001DBC;" parent="1" vertex="1">
          <mxGeometry x="960" y="350" width="20" height="20" as="geometry" />
        </mxCell>
        <mxCell id="vJI1p02DLTC_4uBa_MS3-11" value="" style="triangle;whiteSpace=wrap;html=1;fillColor=#0050ef;fontColor=#ffffff;strokeColor=#001DBC;" parent="1" vertex="1">
          <mxGeometry x="960" y="390" width="20" height="20" as="geometry" />
        </mxCell>
        <mxCell id="vJI1p02DLTC_4uBa_MS3-12" value="SSD1306&lt;div&gt;Driver&lt;/div&gt;" style="rounded=1;whiteSpace=wrap;html=1;fillColor=#cce5ff;strokeColor=#36393d;" parent="1" vertex="1">
          <mxGeometry x="760" y="200" width="80" height="160" as="geometry" />
        </mxCell>
        <mxCell id="vJI1p02DLTC_4uBa_MS3-13" value="nRST" style="text;html=1;align=center;verticalAlign=middle;whiteSpace=wrap;rounded=0;" parent="1" vertex="1">
          <mxGeometry x="980" y="180" width="60" height="20" as="geometry" />
        </mxCell>
        <mxCell id="vJI1p02DLTC_4uBa_MS3-14" value="nVBAT" style="text;html=1;align=center;verticalAlign=middle;whiteSpace=wrap;rounded=0;" parent="1" vertex="1">
          <mxGeometry x="980" y="220" width="60" height="20" as="geometry" />
        </mxCell>
        <mxCell id="vJI1p02DLTC_4uBa_MS3-15" value="nVDC" style="text;html=1;align=center;verticalAlign=middle;whiteSpace=wrap;rounded=0;" parent="1" vertex="1">
          <mxGeometry x="980" y="260" width="60" height="20" as="geometry" />
        </mxCell>
        <mxCell id="vJI1p02DLTC_4uBa_MS3-16" value="nCS" style="text;html=1;align=center;verticalAlign=middle;whiteSpace=wrap;rounded=0;" parent="1" vertex="1">
          <mxGeometry x="980" y="300" width="60" height="20" as="geometry" />
        </mxCell>
        <mxCell id="vJI1p02DLTC_4uBa_MS3-17" value="D/C" style="text;html=1;align=center;verticalAlign=middle;whiteSpace=wrap;rounded=0;" parent="1" vertex="1">
          <mxGeometry x="980" y="340" width="60" height="20" as="geometry" />
        </mxCell>
        <mxCell id="vJI1p02DLTC_4uBa_MS3-18" value="Data" style="text;html=1;align=center;verticalAlign=middle;whiteSpace=wrap;rounded=0;" parent="1" vertex="1">
          <mxGeometry x="980" y="420" width="60" height="20" as="geometry" />
        </mxCell>
        <mxCell id="vJI1p02DLTC_4uBa_MS3-19" value="CLK" style="text;html=1;align=center;verticalAlign=middle;whiteSpace=wrap;rounded=0;" parent="1" vertex="1">
          <mxGeometry x="980" y="380" width="60" height="20" as="geometry" />
        </mxCell>
        <mxCell id="vJI1p02DLTC_4uBa_MS3-20" value="" style="triangle;whiteSpace=wrap;html=1;fillColor=#0050ef;fontColor=#ffffff;strokeColor=#001DBC;" parent="1" vertex="1">
          <mxGeometry x="960" y="430" width="20" height="20" as="geometry" />
        </mxCell>
        <mxCell id="vJI1p02DLTC_4uBa_MS3-21" value="Microcode Memory" style="rounded=1;whiteSpace=wrap;html=1;fillColor=#e3c800;strokeColor=#B09500;fontColor=#000000;" parent="1" vertex="1">
          <mxGeometry x="400" y="720" width="120" height="60" as="geometry" />
        </mxCell>
        <mxCell id="vJI1p02DLTC_4uBa_MS3-22" value="Microcode Executor" style="rounded=1;whiteSpace=wrap;html=1;fillColor=#e1d5e7;strokeColor=#9673a6;" parent="1" vertex="1">
          <mxGeometry x="400" y="620" width="120" height="60" as="geometry" />
        </mxCell>
        <mxCell id="vJI1p02DLTC_4uBa_MS3-23" value="" style="shape=flexArrow;endArrow=classic;html=1;rounded=0;entryX=0;entryY=0.25;entryDx=0;entryDy=0;" parent="1" edge="1">
          <mxGeometry width="50" height="50" relative="1" as="geometry">
            <mxPoint x="440" y="200" as="sourcePoint" />
            <mxPoint x="560" y="255" as="targetPoint" />
            <Array as="points">
              <mxPoint x="480" y="200" />
              <mxPoint x="480" y="255" />
            </Array>
          </mxGeometry>
        </mxCell>
        <mxCell id="vJI1p02DLTC_4uBa_MS3-24" value="" style="triangle;whiteSpace=wrap;html=1;fillColor=#60a917;fontColor=#ffffff;strokeColor=#2D7600;" parent="1" vertex="1">
          <mxGeometry x="220" y="350" width="20" height="20" as="geometry" />
        </mxCell>
        <mxCell id="vJI1p02DLTC_4uBa_MS3-25" value="" style="triangle;whiteSpace=wrap;html=1;fillColor=#60a917;fontColor=#ffffff;strokeColor=#2D7600;" parent="1" vertex="1">
          <mxGeometry x="220" y="470" width="20" height="20" as="geometry" />
        </mxCell>
        <mxCell id="vJI1p02DLTC_4uBa_MS3-26" value="CLK_X" style="text;html=1;align=center;verticalAlign=middle;whiteSpace=wrap;rounded=0;" parent="1" vertex="1">
          <mxGeometry x="140" y="180" width="70" height="20" as="geometry" />
        </mxCell>
        <mxCell id="vJI1p02DLTC_4uBa_MS3-27" value="RESET" style="text;html=1;align=center;verticalAlign=middle;whiteSpace=wrap;rounded=0;" parent="1" vertex="1">
          <mxGeometry x="140" y="460" width="70" height="20" as="geometry" />
        </mxCell>
        <mxCell id="vJI1p02DLTC_4uBa_MS3-28" value="CLK_REF" style="text;html=1;align=center;verticalAlign=middle;whiteSpace=wrap;rounded=0;" parent="1" vertex="1">
          <mxGeometry x="140" y="340" width="70" height="20" as="geometry" />
        </mxCell>
        <mxCell id="vJI1p02DLTC_4uBa_MS3-30" value="" style="shape=flexArrow;endArrow=classic;html=1;rounded=0;entryX=0;entryY=0.75;entryDx=0;entryDy=0;" parent="1" edge="1">
          <mxGeometry width="50" height="50" relative="1" as="geometry">
            <mxPoint x="440" y="359" as="sourcePoint" />
            <mxPoint x="560" y="305" as="targetPoint" />
            <Array as="points">
              <mxPoint x="480" y="359" />
              <mxPoint x="480" y="305" />
            </Array>
          </mxGeometry>
        </mxCell>
        <mxCell id="vJI1p02DLTC_4uBa_MS3-31" value="" style="shape=flexArrow;endArrow=classic;html=1;rounded=0;entryX=0;entryY=0.5;entryDx=0;entryDy=0;exitX=1;exitY=0.5;exitDx=0;exitDy=0;startArrow=block;" parent="1" target="vJI1p02DLTC_4uBa_MS3-12" edge="1">
          <mxGeometry width="50" height="50" relative="1" as="geometry">
            <mxPoint x="680" y="280" as="sourcePoint" />
            <mxPoint x="570" y="490" as="targetPoint" />
          </mxGeometry>
        </mxCell>
        <mxCell id="vJI1p02DLTC_4uBa_MS3-33" value="" style="endArrow=classic;html=1;rounded=0;exitX=1;exitY=0.5;exitDx=0;exitDy=0;entryX=0;entryY=0.5;entryDx=0;entryDy=0;" parent="1" edge="1">
          <mxGeometry width="50" height="50" relative="1" as="geometry">
            <mxPoint x="240" y="200" as="sourcePoint" />
            <mxPoint x="320" y="200" as="targetPoint" />
          </mxGeometry>
        </mxCell>
        <mxCell id="vJI1p02DLTC_4uBa_MS3-34" value="" style="endArrow=classic;html=1;rounded=0;exitX=1;exitY=0.5;exitDx=0;exitDy=0;" parent="1" source="vJI1p02DLTC_4uBa_MS3-25" edge="1">
          <mxGeometry width="50" height="50" relative="1" as="geometry">
            <mxPoint x="240" y="520" as="sourcePoint" />
            <mxPoint x="820" y="360" as="targetPoint" />
            <Array as="points">
              <mxPoint x="820" y="480" />
            </Array>
          </mxGeometry>
        </mxCell>
        <mxCell id="vJI1p02DLTC_4uBa_MS3-35" value="" style="endArrow=classic;html=1;rounded=0;entryX=0.5;entryY=1;entryDx=0;entryDy=0;" parent="1" edge="1">
          <mxGeometry width="50" height="50" relative="1" as="geometry">
            <mxPoint x="620" y="480" as="sourcePoint" />
            <mxPoint x="620" y="330" as="targetPoint" />
          </mxGeometry>
        </mxCell>
        <mxCell id="vJI1p02DLTC_4uBa_MS3-37" value="" style="endArrow=classic;html=1;rounded=0;entryX=0.25;entryY=1;entryDx=0;entryDy=0;" parent="1" edge="1">
          <mxGeometry width="50" height="50" relative="1" as="geometry">
            <mxPoint x="590" y="440" as="sourcePoint" />
            <mxPoint x="590" y="330" as="targetPoint" />
          </mxGeometry>
        </mxCell>
        <mxCell id="vJI1p02DLTC_4uBa_MS3-39" value="" style="endArrow=classic;html=1;rounded=0;entryX=0.25;entryY=1;entryDx=0;entryDy=0;" parent="1" target="vJI1p02DLTC_4uBa_MS3-12" edge="1">
          <mxGeometry width="50" height="50" relative="1" as="geometry">
            <mxPoint x="280" y="360" as="sourcePoint" />
            <mxPoint x="790" y="360" as="targetPoint" />
            <Array as="points">
              <mxPoint x="280" y="440" />
              <mxPoint x="780" y="440" />
            </Array>
          </mxGeometry>
        </mxCell>
        <mxCell id="vJI1p02DLTC_4uBa_MS3-43" value="" style="shape=flexArrow;endArrow=classic;html=1;rounded=0;exitX=1;exitY=0.5;exitDx=0;exitDy=0;" parent="1" edge="1">
          <mxGeometry width="50" height="50" relative="1" as="geometry">
            <mxPoint x="840" y="279.65999999999997" as="sourcePoint" />
            <mxPoint x="900" y="280" as="targetPoint" />
          </mxGeometry>
        </mxCell>
        <mxCell id="vJI1p02DLTC_4uBa_MS3-44" value="" style="endArrow=classic;html=1;rounded=0;" parent="1" edge="1">
          <mxGeometry width="50" height="50" relative="1" as="geometry">
            <mxPoint x="900" y="280" as="sourcePoint" />
            <mxPoint x="960" y="280" as="targetPoint" />
          </mxGeometry>
        </mxCell>
        <mxCell id="vJI1p02DLTC_4uBa_MS3-45" value="" style="endArrow=none;html=1;rounded=0;strokeWidth=3;" parent="1" edge="1">
          <mxGeometry width="50" height="50" relative="1" as="geometry">
            <mxPoint x="900" y="450" as="sourcePoint" />
            <mxPoint x="900" y="190" as="targetPoint" />
          </mxGeometry>
        </mxCell>
        <mxCell id="vJI1p02DLTC_4uBa_MS3-46" value="" style="endArrow=classic;html=1;rounded=0;" parent="1" edge="1">
          <mxGeometry width="50" height="50" relative="1" as="geometry">
            <mxPoint x="900" y="320" as="sourcePoint" />
            <mxPoint x="960" y="320" as="targetPoint" />
          </mxGeometry>
        </mxCell>
        <mxCell id="vJI1p02DLTC_4uBa_MS3-47" value="" style="endArrow=classic;html=1;rounded=0;" parent="1" edge="1">
          <mxGeometry width="50" height="50" relative="1" as="geometry">
            <mxPoint x="900" y="360" as="sourcePoint" />
            <mxPoint x="960" y="360" as="targetPoint" />
          </mxGeometry>
        </mxCell>
        <mxCell id="vJI1p02DLTC_4uBa_MS3-48" value="" style="endArrow=classic;html=1;rounded=0;" parent="1" edge="1">
          <mxGeometry width="50" height="50" relative="1" as="geometry">
            <mxPoint x="900" y="399.31" as="sourcePoint" />
            <mxPoint x="960" y="399.31" as="targetPoint" />
          </mxGeometry>
        </mxCell>
        <mxCell id="vJI1p02DLTC_4uBa_MS3-49" value="" style="endArrow=classic;html=1;rounded=0;" parent="1" edge="1">
          <mxGeometry width="50" height="50" relative="1" as="geometry">
            <mxPoint x="900" y="239.31" as="sourcePoint" />
            <mxPoint x="960" y="239.31" as="targetPoint" />
          </mxGeometry>
        </mxCell>
        <mxCell id="vJI1p02DLTC_4uBa_MS3-50" value="" style="endArrow=classic;html=1;rounded=0;" parent="1" edge="1">
          <mxGeometry width="50" height="50" relative="1" as="geometry">
            <mxPoint x="900" y="200" as="sourcePoint" />
            <mxPoint x="960" y="200" as="targetPoint" />
          </mxGeometry>
        </mxCell>
        <mxCell id="vJI1p02DLTC_4uBa_MS3-51" value="" style="endArrow=classic;html=1;rounded=0;" parent="1" edge="1">
          <mxGeometry width="50" height="50" relative="1" as="geometry">
            <mxPoint x="900" y="440" as="sourcePoint" />
            <mxPoint x="960" y="440" as="targetPoint" />
          </mxGeometry>
        </mxCell>
        <mxCell id="vJI1p02DLTC_4uBa_MS3-53" value="" style="endArrow=classic;html=1;rounded=0;entryX=0;entryY=0.5;entryDx=0;entryDy=0;" parent="1" target="vJI1p02DLTC_4uBa_MS3-1" edge="1">
          <mxGeometry width="50" height="50" relative="1" as="geometry">
            <mxPoint x="140" y="200" as="sourcePoint" />
            <mxPoint x="80" y="470" as="targetPoint" />
          </mxGeometry>
        </mxCell>
        <mxCell id="vJI1p02DLTC_4uBa_MS3-54" value="" style="endArrow=classic;html=1;rounded=0;entryX=0;entryY=0.5;entryDx=0;entryDy=0;" parent="1" edge="1">
          <mxGeometry width="50" height="50" relative="1" as="geometry">
            <mxPoint x="140" y="360" as="sourcePoint" />
            <mxPoint x="220" y="359.31" as="targetPoint" />
          </mxGeometry>
        </mxCell>
        <mxCell id="vJI1p02DLTC_4uBa_MS3-55" value="" style="endArrow=classic;html=1;rounded=0;entryX=0;entryY=0.5;entryDx=0;entryDy=0;" parent="1" edge="1">
          <mxGeometry width="50" height="50" relative="1" as="geometry">
            <mxPoint x="140" y="479" as="sourcePoint" />
            <mxPoint x="220" y="479.31" as="targetPoint" />
          </mxGeometry>
        </mxCell>
        <mxCell id="vJI1p02DLTC_4uBa_MS3-56" value="" style="endArrow=classic;html=1;rounded=0;" parent="1" edge="1">
          <mxGeometry width="50" height="50" relative="1" as="geometry">
            <mxPoint x="980" y="440" as="sourcePoint" />
            <mxPoint x="1040" y="440" as="targetPoint" />
          </mxGeometry>
        </mxCell>
        <mxCell id="vJI1p02DLTC_4uBa_MS3-57" value="" style="endArrow=classic;html=1;rounded=0;" parent="1" edge="1">
          <mxGeometry width="50" height="50" relative="1" as="geometry">
            <mxPoint x="980" y="399.65999999999997" as="sourcePoint" />
            <mxPoint x="1040" y="399.65999999999997" as="targetPoint" />
          </mxGeometry>
        </mxCell>
        <mxCell id="vJI1p02DLTC_4uBa_MS3-58" value="" style="endArrow=classic;html=1;rounded=0;" parent="1" edge="1">
          <mxGeometry width="50" height="50" relative="1" as="geometry">
            <mxPoint x="980" y="360" as="sourcePoint" />
            <mxPoint x="1040" y="360" as="targetPoint" />
          </mxGeometry>
        </mxCell>
        <mxCell id="vJI1p02DLTC_4uBa_MS3-59" value="" style="endArrow=classic;html=1;rounded=0;" parent="1" edge="1">
          <mxGeometry width="50" height="50" relative="1" as="geometry">
            <mxPoint x="980" y="320" as="sourcePoint" />
            <mxPoint x="1040" y="320" as="targetPoint" />
          </mxGeometry>
        </mxCell>
        <mxCell id="vJI1p02DLTC_4uBa_MS3-60" value="" style="endArrow=classic;html=1;rounded=0;" parent="1" edge="1">
          <mxGeometry width="50" height="50" relative="1" as="geometry">
            <mxPoint x="980" y="280" as="sourcePoint" />
            <mxPoint x="1040" y="280" as="targetPoint" />
          </mxGeometry>
        </mxCell>
        <mxCell id="vJI1p02DLTC_4uBa_MS3-61" value="" style="endArrow=classic;html=1;rounded=0;" parent="1" edge="1">
          <mxGeometry width="50" height="50" relative="1" as="geometry">
            <mxPoint x="980" y="240" as="sourcePoint" />
            <mxPoint x="1040" y="240" as="targetPoint" />
          </mxGeometry>
        </mxCell>
        <mxCell id="vJI1p02DLTC_4uBa_MS3-62" value="" style="endArrow=classic;html=1;rounded=0;" parent="1" edge="1">
          <mxGeometry width="50" height="50" relative="1" as="geometry">
            <mxPoint x="980" y="200" as="sourcePoint" />
            <mxPoint x="1040" y="200" as="targetPoint" />
          </mxGeometry>
        </mxCell>
        <mxCell id="vJI1p02DLTC_4uBa_MS3-70" value="SSD1306 Driver" style="text;html=1;align=center;verticalAlign=middle;whiteSpace=wrap;rounded=0;fontSize=14;" parent="1" vertex="1">
          <mxGeometry x="280" y="70" width="120" height="30" as="geometry" />
        </mxCell>
        <mxCell id="1xbwsL6LyMTgYE030EHv-1" value="" style="shape=flexArrow;endArrow=classic;html=1;rounded=0;exitX=0.5;exitY=0;exitDx=0;exitDy=0;" edge="1" parent="1" source="vJI1p02DLTC_4uBa_MS3-21" target="vJI1p02DLTC_4uBa_MS3-22">
          <mxGeometry width="50" height="50" relative="1" as="geometry">
            <mxPoint x="520" y="470" as="sourcePoint" />
            <mxPoint x="570" y="420" as="targetPoint" />
          </mxGeometry>
        </mxCell>
        <mxCell id="1xbwsL6LyMTgYE030EHv-3" value="Controller" style="rounded=1;whiteSpace=wrap;html=1;fillColor=#fad7ac;strokeColor=#b46504;" vertex="1" parent="1">
          <mxGeometry x="600" y="620" width="120" height="60" as="geometry" />
        </mxCell>
        <mxCell id="1xbwsL6LyMTgYE030EHv-4" value="SPI Host" style="rounded=1;whiteSpace=wrap;html=1;fillColor=#cce5ff;strokeColor=#36393d;" vertex="1" parent="1">
          <mxGeometry x="800" y="620" width="120" height="60" as="geometry" />
        </mxCell>
      </root>
    </mxGraphModel>
  </diagram>
</mxfile>
